<svg height="512" viewBox="0 0 192 192" width="512" xmlns="http://www.w3.org/2000/svg"><g id="_01-communication" data-name="01-communication"><g id="Glyph"><path d="m128 56c0-30.878-28.71-56-64-56s-64 25.122-64 56c0 13.23 5.219 25.786 14.8 35.827l-6.561 26.233a8 8 0 0 0 10.912 9.293l36.854-15.795c.211.023.422.031.633.052 4.64-31.336 34.862-55.61 71.362-55.61zm-40-8a8 8 0 1 1 -8 8 8 8 0 0 1 8-8zm-48 16a8 8 0 1 1 8-8 8 8 0 0 1 -8 8zm24 0a8 8 0 1 1 8-8 8 8 0 0 1 -8 8z"/><path d="m177.2 155.828c9.581-10.042 14.8-22.598 14.8-35.828 0-30.878-28.71-56-64-56s-64 25.122-64 56 28.71 56 64 56a73.5 73.5 0 0 0 7.994-.441l36.855 15.794a8 8 0 0 0 10.912-9.293zm-73.2-27.828a8 8 0 1 1 8-8 8 8 0 0 1 -8 8zm24 0a8 8 0 1 1 8-8 8 8 0 0 1 -8 8zm24 0a8 8 0 1 1 8-8 8 8 0 0 1 -8 8z"/></g></g></svg>