<svg height="512" viewBox="0 0 192 192" width="512" xmlns="http://www.w3.org/2000/svg"><g id="_04-respectful" data-name="04-respectful"><g id="Glyph"><path d="m72 78c-.17 0-17 .194-17 17v31.764l-6.9 13.8-15.1-37.756v-38.808c0-29.583-15.663-34-25-34a1 1 0 0 0 -1 1v88a1.012 1.012 0 0 0 .071.372l15.929 39.82v31.808a1 1 0 0 0 1 1h48a1 1 0 0 0 1-1v-31.838l7.948-23.846a.988.988 0 0 0 .042-.458l-8-56a1 1 0 0 0 -.99-.858z"/><path d="m184 30c-9.337 0-25 4.417-25 34v38.808l-15.1 37.753-6.9-13.8v-31.761c0-16.806-16.83-17-17-17a1 1 0 0 0 -.99.858l-8 56a.988.988 0 0 0 .042.458l7.948 23.846v31.838a1 1 0 0 0 1 1h48a1 1 0 0 0 1-1v-31.808l15.929-39.82a1.012 1.012 0 0 0 .071-.372v-88a1 1 0 0 0 -1-1z"/><path d="m88 0h16v24h-16z"/><path d="m116.686 16h22.627v16h-22.627z" transform="matrix(.707 -.707 .707 .707 20.523 97.544)"/><path d="m56 12.686h16v22.627h-16z" transform="matrix(.707 -.707 .707 .707 1.775 52.284)"/></g></g></svg>