<?xml version="1.0"?>
<svg xmlns="http://www.w3.org/2000/svg" viewBox="0 0 192 192" width="512" height="512"><g id="_07-willing_to_change" data-name="07-willing to change"><g id="Glyph"><circle cx="96" cy="56" r="24"/><path d="M112,80H80a24.028,24.028,0,0,0-24,24v40a8,8,0,0,0,8,8h64a8,8,0,0,0,8-8V104A24.028,24.028,0,0,0,112,80Z"/><path d="M183.875,57.369A8.02,8.02,0,0,0,184,56V24H168v8.577A95.966,95.966,0,0,0,8.125,134.631,8.02,8.02,0,0,0,8,136v32H24v-8.577A95.966,95.966,0,0,0,183.875,57.369ZM96,176a79.923,79.923,0,0,1-63.956-32H48V128H22.7A79.968,79.968,0,0,1,159.956,48H144V64h25.3A79.96,79.96,0,0,1,96,176Z"/></g></g></svg>
