<svg fill="#FFE62B" height="512" viewBox="0 0 192 192" width="512" xmlns="http://www.w3.org/2000/svg"><g id="_08-honest" data-name="08-honest"><g id="Glyph"><path d="m191.723 84.327c-1.362-13.9-7.531-25.991-17.369-34.056-16.388-13.437-45.183-16.402-78.354 13.461-33.17-29.862-61.965-26.897-78.354-13.461-9.838 8.065-16.006 20.16-17.369 34.056-1.388 14.173 2.523 28.982 11.006 41.71 20.183 30.276 78.296 63.563 80.76 64.963a8.071 8.071 0 0 0 7.914 0c2.464-1.4 60.576-34.689 80.761-64.965 8.482-12.726 12.394-27.535 11.005-41.708zm-98.066 49.33a8 8 0 0 1 -11.314 0l-16-16 11.314-11.314 10.343 10.344 26.343-26.344 11.314 11.314z"/></g></g></svg>