<?xml version="1.0"?>
<svg xmlns="http://www.w3.org/2000/svg" viewBox="0 0 192 192" width="512" height="512"><g id="_09-moral" data-name="09-moral"><g id="Glyph"><path d="M190.656,83.563h0l-.011-.018-.021-.031L158.656,35.563a7.955,7.955,0,0,0-9.343-3.087l0-.01-112,40,0,.01a7.981,7.981,0,0,0-3.969,3.087L1.376,123.514l-.021.031-.011.018h0A7.962,7.962,0,0,0,0,128a40,40,0,0,0,80,0,7.962,7.962,0,0,0-1.344-4.437h0l-.011-.018-.021-.031L52.34,84.088,88,71.352V176H72v16h48V176H104V65.637l27.948-9.981L113.376,83.514l-.021.031-.011.018h0A7.962,7.962,0,0,0,112,88a40,40,0,0,0,80,0A7.962,7.962,0,0,0,190.656,83.563ZM22.948,120,40,94.422,57.052,120Zm112-40L152,54.422,169.052,80Z"/></g></g></svg>
