<?xml version="1.0"?>
<svg fill="#FFDE59" xmlns="http://www.w3.org/2000/svg" viewBox="0 0 192 192" width="512" height="512"><g id="_12-patience" data-name="12-patience"><g id="Glyph"><rect x="32" width="128" height="40" rx="8"/><rect x="32" y="152" width="128" height="40" rx="8"/><path d="M42.549,144h106.9c-3.76-11.239-11.017-19.349-17.213-26.264C124.65,109.269,120,103.688,120,96s4.65-13.269,12.238-21.736c6.2-6.915,13.453-15.025,17.213-26.264H140.89c-3.457,8.45-9.257,14.95-14.61,20.925-6.6,7.361-12.846,14.364-14.054,23.782C100.9,97.953,89.4,102.723,77.541,107.015A26.047,26.047,0,0,0,80,96c0-11.138-6.936-18.879-14.28-27.075C60.367,62.95,54.567,56.45,51.11,48H42.549c3.76,11.239,11.017,19.349,17.213,26.264C67.35,82.731,72,88.312,72,96s-4.65,13.269-12.238,21.736C53.566,124.651,46.309,132.761,42.549,144ZM112,112a8,8,0,1,1-8,8A8,8,0,0,1,112,112Z"/></g></g></svg>
