<?xml version="1.0"?>
<svg xmlns="http://www.w3.org/2000/svg" viewBox="0 0 192 192" width="512" height="512"><g id="_13-self_control" data-name="13-self control"><g id="Glyph"><path d="M176,16H16A16.019,16.019,0,0,0,0,32V160a16.019,16.019,0,0,0,16,16H176a16.019,16.019,0,0,0,16-16V32A16.019,16.019,0,0,0,176,16ZM56,126.629V160H40V126.629a24,24,0,0,1,0-45.258V32H56V81.371a24,24,0,0,1,0,45.258Zm48-32V160H88V94.629a24,24,0,0,1,0-45.258V32h16V49.371a24,24,0,0,1,0,45.258Zm48,56V160H136v-9.371a24,24,0,0,1,0-45.258V32h16v73.371a24,24,0,0,1,0,45.258Z"/><circle cx="48" cy="104" r="16"/><circle cx="96" cy="72" r="16"/><circle cx="144" cy="128" r="16"/></g></g></svg>
