<svg height="512" viewBox="0 0 192 192" width="512" xmlns="http://www.w3.org/2000/svg"><g id="_14-optimistic" data-name="14-optimistic"><g id="Glyph"><path d="m190.656 91.563c-1.403-2.106-35.056-51.563-94.656-51.563s-93.253 49.457-94.656 51.563a8 8 0 0 0 0 8.875c1.403 2.105 35.056 51.562 94.656 51.562s93.253-49.457 94.656-51.562a8 8 0 0 0 0-8.875zm-94.656 52.437a48 48 0 1 1 48-48 48 48 0 0 1 -48 48z"/><path d="m118.522 80.863c-4.856-3.98-13.125-5.1-22.522 2.674-9.4-7.774-17.666-6.654-22.522-2.674-6.444 5.283-7.345 15.2-2.095 23.078 5.741 8.612 21.951 17.9 22.638 18.289a4.006 4.006 0 0 0 3.958 0c.687-.391 16.9-9.677 22.638-18.289 5.25-7.874 4.349-17.795-2.095-23.078z"/><path d="m160 56h16v-8h8v-16h-8v-8h-16v8h-8v16h8z"/><path d="m120 32h16v-8h8v-16h-8v-8h-16v8h-8v16h8z"/></g></g></svg>