<svg height="512" viewBox="0 0 192 192" width="512" xmlns="http://www.w3.org/2000/svg"><g id="_15-encourage" data-name="15-encourage"><g id="Glyph"><path d="m96 0c-52.935 0-96 35.888-96 80 0 18.79 7.805 36.771 22.079 51.1l-5.9 27.207a8.076 8.076 0 0 0 9.847 9.433l42.328-11.1a114.121 114.121 0 0 0 27.646 3.36c52.935 0 96-35.888 96-80s-43.065-80-96-80zm23 136h-48v-8h48zm0-16h-48v-8h48zm16.391-52.938a8 8 0 0 1 -7.391 4.938h-8v24a8 8 0 0 1 -8 8h-32a8 8 0 0 1 -8-8v-24h-8a8 8 0 0 1 -5.657-13.657l32-32a8 8 0 0 1 11.314 0l32 32a8 8 0 0 1 1.734 8.719z"/></g></g></svg>