<svg height="512" viewBox="0 0 192 192" width="512" xmlns="http://www.w3.org/2000/svg"><g id="_17-social" data-name="17-social"><g id="Glyph"><path d="m160 96a64 64 0 1 0 -64 64 64.072 64.072 0 0 0 64-64zm-80-24a8 8 0 1 1 -8 8 8 8 0 0 1 8-8zm16 56a24 24 0 0 1 -24-24h48a24 24 0 0 1 -24 24zm16-40a8 8 0 1 1 8-8 8 8 0 0 1 -8 8z"/><path d="m192 24h-16v-16h-16v16h-16v16h16v16h16v-16h16z"/><path d="m32 48h16v-16h-16v-16h-16v16h-16v16h16v16h16z"/><path d="m160 144h-16v16h-16v16h16v16h16v-16h16v-16h-16z"/></g></g></svg>