<svg height="512" viewBox="0 0 192 192" width="512" xmlns="http://www.w3.org/2000/svg"><g id="_18-supportive" data-name="18-supportive"><g id="Glyph"><path d="m187.691 157.443c-6.889-5.417-21.873-5.235-45.81.557h-30.689l-37.753-15.1 13.8-6.9h31.761c16.806 0 17-16.83 17-17a1 1 0 0 0 -.858-.99l-56-8a.973.973 0 0 0 -.458.042l-23.846 7.948h-54.838v50h54.808l39.82 15.929.372.071h48a.984.984 0 0 0 .314-.051l48-16a1 1 0 0 0 .686-.949 11.5 11.5 0 0 0 -4.309-9.557z"/><path d="m176 64h16v16h-16z"/><path d="m157.254 18.745h16.001v16.001h-16.001z" transform="matrix(.707 -.707 .707 .707 29.49 124.686)"/><path d="m112 0h16v16h-16z"/><path d="m66.745 18.745h16v16h-16z" transform="matrix(.707 -.707 .707 .707 2.979 60.683)"/><path d="m48 64h16v16h-16z"/><path d="m116.3 92.133a8 8 0 0 0 7.914 0c1.806-1.029 17.833-10.315 23.989-19.548 6.4-9.593 5.153-21.8-2.888-28.39-5.409-4.434-14.757-6.329-25.058.763-10.3-7.093-19.649-5.2-25.058-.763-8.042 6.593-9.283 18.8-2.888 28.39 6.16 9.232 22.189 18.515 23.989 19.548z"/></g></g></svg>