<?xml version="1.0"?>
<svg xmlns="http://www.w3.org/2000/svg" viewBox="0 0 192 192" width="512" height="512"><g id="_20-professional" data-name="20-professional"><g id="Glyph"><path d="M176,0h-8V24L139.888,38.056a4,4,0,0,1-5.5-2.092L120,0h-8.616L118,16.542l-6.239,23.4H80.239L73.726,15.515,79.534.027C79.689.018,79.843,0,80,0H71L57.56,35.84a4,4,0,0,1-5.534,2.173L24,24V0H16A8,8,0,0,0,8,8V184a8,8,0,0,0,8,8H176a8,8,0,0,0,8-8V8A8,8,0,0,0,176,0ZM125.657,149.657l-24,24a8,8,0,0,1-11.314,0l-24-24a8,8,0,0,1-2.25-6.874L78.675,48h34.65l14.582,94.783A8,8,0,0,1,125.657,149.657Z"/></g></g></svg>
