<svg fill="#FFE62B" height="512" viewBox="0 0 192 192" width="512" xmlns="http://www.w3.org/2000/svg"><g id="_22-inspired" data-name="22-inspired"><g id="Glyph"><path d="m96.413 16.7c-52.934 0-96 35.888-96 80 0 18.79 7.805 36.772 22.079 51.1l-5.892 27.2a8 8 0 0 0 9.847 9.433l42.329-11.1a114.2 114.2 0 0 0 27.637 3.367c52.935 0 96-35.887 96-80s-43.065-80-96-80zm-8.413 23.3h16v16h-16zm-32 64h-16v-16h16zm-5.255-41.94 11.314-11.315 11.314 11.314-11.314 11.314zm69.255 73.94v16h-48v-16h8v-12.292a32 32 0 1 1 32 0v12.292zm-1.373-73.941 11.314-11.314 11.314 11.315-11.314 11.313zm33.373 41.941h-16v-16h16z"/><path d="m117.657 93.657-11.314-11.314-10.343 10.343-10.343-10.343-11.314 11.314 13.657 13.656v28.687h16v-28.686z"/></g></g></svg>