<?xml version="1.0"?>
<svg xmlns="http://www.w3.org/2000/svg" viewBox="0 0 192 192" width="512" height="512"><g id="_24-on_time" data-name="24-on time"><g id="Glyph"><path d="M136,24V40a16.019,16.019,0,0,1,16,16h16A32.036,32.036,0,0,0,136,24Z"/><path d="M136,0V16a40.045,40.045,0,0,1,40,40h16A56.063,56.063,0,0,0,136,0Z"/><path d="M40,56A16.019,16.019,0,0,1,56,40V24A32.036,32.036,0,0,0,24,56Z"/><path d="M56,16V0A56.063,56.063,0,0,0,0,56H16A40.045,40.045,0,0,1,56,16Z"/><path d="M120,52.128V48a24,24,0,0,0-48,0v4.128a72,72,0,1,0,48,0ZM96,184a64,64,0,1,1,64-64A64.072,64.072,0,0,1,96,184Z"/><path d="M151.419,112A56.112,56.112,0,0,0,104,64.581V80H88V64.581A56.112,56.112,0,0,0,40.581,112H56v16H40.581A56.112,56.112,0,0,0,88,175.419V160h16v15.419A56.112,56.112,0,0,0,151.419,128H136V112Zm-49.762,13.657a8.186,8.186,0,0,1-10.095,1l-24-16,8.875-13.312L94.98,109.706l27.363-27.363,11.314,11.314Z"/></g></g></svg>
