<?xml version="1.0"?>
<svg xmlns="http://www.w3.org/2000/svg" viewBox="0 0 192 192" width="512" height="512"><g id="_26-listener" data-name="26-listener"><g id="Glyph"><path d="M86.323,54.675c-2.8-8.58-9.154-15.277-18.89-19.9-12.247-5.817-27.993-3.96-42.119,4.968C9.7,49.61,0,65.8,0,82c0,34,8,78,28.278,97.588,4.029,3.892,9.589,4.379,14.085,4.379a24.317,24.317,0,0,0,8.446-1.477c18.482-6.93,16.019-27.915,14.221-43.237A113.658,113.658,0,0,1,64,127c0-2.666,4.621-11.188,8-17.411C80.963,93.049,92.125,72.464,86.323,54.675ZM64.5,88.5C63.684,113.785,41,120,33,152c0,0-13.981-27.019-1-40,16-16,13.657-26.343,8-32-9-9-24,0-24,0s8.508-22.984,24.5-23.5C56,56,65,73,64.5,88.5Z"/><path d="M173.766,112l-6.177-18.53a8,8,0,0,0-15.4.8l-8.982,40.423L127.718,77.9a8,8,0,0,0-15.146-.867L98.584,112H80v16h24a8,8,0,0,0,7.428-5.029l7.134-17.837,17.72,64.97A8,8,0,0,0,144,176l.192,0a8,8,0,0,0,7.62-6.263L161.751,125A8,8,0,0,0,168,128h24V112Z"/></g></g></svg>
